<?xml version="1.0" standalone="no"?>
<!DOCTYPE svg PUBLIC "-//W3C//DTD SVG 20010904//EN"
 "http://www.w3.org/TR/2001/REC-SVG-20010904/DTD/svg10.dtd">
<svg version="1.0" xmlns="http://www.w3.org/2000/svg"
 width="1024.000000pt" height="1024.000000pt" viewBox="0 0 1024.000000 1024.000000"
 preserveAspectRatio="xMidYMid meet">

<g transform="translate(0.000000,1024.000000) scale(0.100000,-0.100000)"
fill="#000000" stroke="none">
<path d="M4945 7419 c-539 -42 -1031 -264 -1424 -644 -374 -361 -608 -820
-683 -1340 -19 -135 -16 -513 5 -651 37 -238 105 -457 207 -669 116 -243 248
-425 454 -631 225 -224 457 -380 742 -500 96 -40 352 -120 359 -112 1 2 0 305
-4 673 l-6 670 -35 70 c-38 76 -94 124 -168 145 -20 5 -140 10 -265 10 -242 0
-284 7 -306 48 -7 14 -11 136 -11 359 0 186 -5 365 -10 398 -22 132 -96 193
-246 203 l-84 5 0 -121 0 -121 35 -7 c20 -3 40 -15 45 -25 6 -10 10 -151 10
-341 0 -361 8 -427 59 -507 32 -48 69 -78 136 -108 34 -15 74 -18 280 -19 148
-1 251 -6 268 -13 55 -22 57 -36 57 -536 0 -250 -4 -455 -8 -455 -4 0 -62 27
-127 59 -529 261 -927 736 -1084 1294 -57 202 -75 339 -75 567 1 228 19 367
75 567 221 786 913 1383 1714 1479 66 7 126 14 133 14 9 0 12 -99 12 -460 l0
-460 120 0 120 0 0 579 0 579 -22 6 c-29 7 -143 5 -273 -5z"/>
<path d="M5440 7286 l0 -121 83 -18 c452 -93 875 -344 1167 -694 201 -241 340
-508 414 -796 54 -208 69 -326 69 -542 -1 -253 -30 -434 -109 -670 -166 -498
-545 -931 -1024 -1172 l-125 -63 -3 455 c-2 485 -1 499 46 524 9 5 127 11 262
13 198 4 254 8 289 22 63 23 106 59 138 113 46 80 53 138 53 499 0 364 -2 353
63 369 l27 7 0 121 0 120 -79 -6 c-124 -8 -189 -46 -228 -132 -16 -36 -19 -82
-23 -420 -4 -282 -8 -386 -18 -402 -25 -44 -44 -48 -312 -53 -245 -5 -257 -6
-302 -29 -60 -30 -89 -62 -125 -131 l-28 -55 -3 -673 -3 -673 28 7 c74 17 229
71 331 115 510 218 936 632 1176 1140 322 682 282 1504 -107 2160 -103 175
-224 325 -385 481 -330 319 -737 527 -1194 611 l-78 15 0 -122z"/>
<path d="M4890 6221 c-52 -28 -142 -128 -174 -193 -83 -170 -45 -380 92 -514
174 -170 438 -174 611 -9 103 98 147 211 139 357 -9 144 -80 271 -195 345 -60
38 -68 40 -76 16 -4 -10 -24 -58 -46 -108 l-39 -89 40 -30 c92 -67 104 -220
25 -304 -89 -96 -252 -80 -320 30 -57 92 -42 195 39 267 l45 39 -47 106 c-26
58 -50 106 -53 106 -3 -1 -22 -9 -41 -19z"/>
<path d="M4552 4793 l3 -118 223 -3 222 -2 0 -880 0 -880 120 0 120 0 0 880 0
880 220 0 220 0 0 120 0 120 -565 0 -566 0 3 -117z"/>
</g>
</svg>
