<?xml version="1.0" standalone="no"?>
<!DOCTYPE svg PUBLIC "-//W3C//DTD SVG 20010904//EN"
 "http://www.w3.org/TR/2001/REC-SVG-20010904/DTD/svg10.dtd">
<svg version="1.0" xmlns="http://www.w3.org/2000/svg"
 width="1024.000000pt" height="1024.000000pt" viewBox="0 0 1024.000000 1024.000000"
 preserveAspectRatio="xMidYMid meet">

<g transform="translate(0.000000,1024.000000) scale(0.100000,-0.100000)"
fill="#000000" stroke="none">
<path d="M0 5120 l0 -5120 5120 0 5120 0 0 5120 0 5120 -5120 0 -5120 0 0
-5120z m5240 1720 l0 -580 -104 0 c-57 0 -111 -3 -120 -6 -14 -6 -16 39 -16
460 l0 467 -62 -6 c-651 -66 -1192 -394 -1548 -936 -318 -484 -413 -1127 -250
-1692 146 -507 492 -948 960 -1225 50 -29 211 -108 238 -116 l22 -7 0 456 c0
401 -2 461 -16 491 -9 19 -22 38 -28 42 -6 4 -126 9 -266 12 -254 5 -255 5
-312 33 -61 30 -105 74 -140 140 -22 41 -23 52 -28 420 l-5 379 -24 19 c-13
10 -32 19 -42 19 -18 0 -19 9 -19 121 l0 122 77 -6 c115 -9 178 -44 218 -121
l30 -60 6 -390 c3 -215 6 -392 7 -394 1 -1 17 -11 35 -22 29 -18 50 -20 268
-20 254 0 280 -4 356 -54 21 -14 51 -46 66 -70 52 -82 55 -126 59 -814 l5
-634 -36 7 c-155 29 -486 171 -674 289 -266 167 -521 419 -699 691 -243 371
-378 818 -378 1255 0 516 159 991 472 1408 89 119 305 337 413 419 299 225
614 370 948 438 165 33 255 42 435 44 l152 1 0 -580z m331 541 c460 -96 842
-303 1174 -635 261 -262 433 -537 553 -886 76 -220 110 -410 119 -665 29 -817
-369 -1574 -1067 -2028 -97 -62 -270 -151 -380 -195 -85 -34 -267 -92 -287
-92 -11 0 -13 119 -11 668 3 657 3 668 24 713 30 63 86 123 142 151 44 22 61
23 305 28 l259 5 23 27 c23 27 23 28 27 400 4 275 8 382 18 408 41 107 111
155 243 166 l77 7 0 -122 c0 -111 -1 -121 -19 -121 -10 0 -30 -9 -45 -21 l-26
-20 0 -326 c0 -191 -5 -352 -11 -389 -22 -125 -107 -219 -219 -243 -28 -6
-147 -11 -265 -11 -117 0 -225 -4 -239 -10 -55 -21 -56 -29 -56 -525 0 -250 3
-455 8 -455 17 0 229 114 310 166 131 85 195 137 326 264 260 252 447 563 547
910 57 201 72 311 73 560 1 214 -4 276 -35 425 -119 572 -466 1058 -976 1366
-183 110 -457 214 -660 249 l-73 13 0 119 c0 138 -12 130 141 99z m-587 -1247
l47 -106 -45 -40 c-91 -80 -99 -215 -16 -298 47 -47 95 -63 171 -58 47 3 66
10 96 34 63 51 77 78 81 153 5 82 -16 131 -77 182 l-40 34 49 103 c27 56 52
102 57 102 14 0 86 -51 126 -89 141 -133 168 -376 63 -555 -34 -59 -127 -143
-188 -171 -280 -128 -595 54 -633 365 -13 109 35 256 113 342 33 37 128 108
143 108 4 0 28 -48 53 -106z m696 -1344 l0 -120 -220 0 -220 0 0 -885 0 -885
-120 0 -120 0 -2 886 -3 886 -220 1 -220 2 -3 118 -3 117 566 0 565 0 0 -120z
m4029 -4056 c27 -63 90 -123 156 -151 25 -10 45 -20 45 -23 0 -3 -25 -16 -56
-29 -63 -27 -123 -90 -151 -156 -10 -25 -20 -45 -23 -45 -3 0 -16 25 -29 56
-27 63 -90 123 -156 151 -25 10 -45 20 -45 23 0 3 25 16 56 29 63 27 123 90
151 156 10 25 20 45 23 45 3 0 16 -25 29 -56z"/>
</g>
</svg>
